<svg width="48" height="48" viewBox="0 0 48 48" fill="none" xmlns="http://www.w3.org/2000/svg">
<circle cx="24" cy="24" r="22.5" stroke="#434974" stroke-width="3" stroke-linecap="round" stroke-linejoin="round" stroke-dasharray="10 10"/>
<path d="M29.3328 24C29.3328 25.2141 29.2635 26.3844 29.1422 27.5H18.4328C18.3057 26.3844 18.2422 25.2141 18.2422 24C18.2422 22.7859 18.3115 21.6156 18.4328 20.5H29.1422C29.2693 21.6156 29.3328 22.7859 29.3328 24ZM30.9964 20.5H38.1071C38.4133 21.6211 38.575 22.7914 38.575 24C38.575 25.2086 38.4133 26.3789 38.1071 27.5H30.9964C31.1177 26.3734 31.1813 25.2031 31.1813 24C31.1813 22.7969 31.1177 21.6266 30.9964 20.5ZM37.5006 18.75H30.7596C30.1819 15.2555 29.0382 12.3297 27.5652 10.4594C32.0881 11.5914 35.7677 14.6977 37.4948 18.75H37.5006ZM28.888 18.75H18.687C19.0393 16.7594 19.5823 14.9984 20.2466 13.5711C20.8531 12.2805 21.5289 11.3453 22.1817 10.7547C22.8286 10.175 23.3658 10 23.7875 10C24.2092 10 24.7464 10.175 25.3933 10.7547C26.0461 11.3453 26.7219 12.2805 27.3284 13.5711C27.9985 14.993 28.5357 16.7539 28.888 18.75ZM16.8154 18.75H10.0744C11.8073 14.6977 15.4811 11.5914 20.0098 10.4594C18.5368 12.3297 17.3931 15.2555 16.8154 18.75ZM9.46789 20.5H16.5786C16.4573 21.6266 16.3938 22.7969 16.3938 24C16.3938 25.2031 16.4573 26.3734 16.5786 27.5H9.46789C9.16174 26.3789 9 25.2086 9 24C9 22.7914 9.16174 21.6211 9.46789 20.5ZM20.2466 34.4234C19.5765 33.0016 19.0393 31.2406 18.687 29.25H28.888C28.5357 31.2406 27.9927 33.0016 27.3284 34.4234C26.7219 35.7141 26.0461 36.6492 25.3933 37.2398C24.7464 37.825 24.2092 38 23.7875 38C23.3658 38 22.8286 37.825 22.1817 37.2453C21.5289 36.6547 20.8531 35.7195 20.2466 34.4289V34.4234ZM16.8154 29.25C17.3931 32.7445 18.5368 35.6703 20.0098 37.5406C15.4811 36.4086 11.8073 33.3023 10.0744 29.25H16.8154ZM37.5006 29.25C35.7677 33.3023 32.0939 36.4086 27.571 37.5406C29.044 35.6703 30.1819 32.7445 30.7654 29.25H37.5006Z" fill="#434974"/>
</svg>
