<svg width="40" height="54" viewBox="0 0 43 53" fill="none" xmlns="http://www.w3.org/2000/svg">
<path d="M34.9193 4.61757C35.5683 3.19946 35.0843 1.54326 33.7533 0.63236C32.4222 -0.278546 30.6072 -0.195736 29.3642 0.818681L1.20358 24.0054C0.103562 24.9163 -0.292446 26.3758 0.224564 27.6593C0.741575 28.9429 2.0616 29.8124 3.52463 29.8124H15.7899L7.33071 48.3824C6.6817 49.8005 7.16571 51.4567 8.49674 52.3676C9.82776 53.2785 11.6428 53.1957 12.8858 52.1813L41.0464 28.9946C42.1464 28.0837 42.5424 26.6242 42.0254 25.3407C41.5084 24.0571 40.1994 23.198 38.7254 23.198H26.4601L34.9193 4.61757Z" fill="#434974"/>
</svg>
