<svg width="48" height="48" viewBox="0 0 51 48" fill="none" xmlns="http://www.w3.org/2000/svg">
<path d="M50.6867 23.9531C50.6867 25.6406 49.3663 26.9625 47.8698 26.9625H45.0529L45.1145 41.9812C45.1145 42.2344 45.0969 42.4875 45.0705 42.7406V44.25C45.0705 46.3219 43.4948 48 41.5494 48H40.1409C40.0441 48 39.9473 48 39.8504 47.9906C39.7272 48 39.6039 48 39.4807 48H36.6198H34.5071C32.5617 48 30.986 46.3219 30.986 44.25V42V36C30.986 34.3406 29.7272 33 28.1691 33H22.5352C20.9771 33 19.7183 34.3406 19.7183 36V42V44.25C19.7183 46.3219 18.1426 48 16.1972 48H14.0845H11.2764C11.1444 48 11.0123 47.9906 10.8803 47.9812C10.7747 47.9906 10.669 48 10.5634 48H9.15495C7.20952 48 5.63381 46.3219 5.63381 44.25V33.75C5.63381 33.6656 5.63381 33.5719 5.64261 33.4875V26.9625H2.81691C1.2324 26.9625 0 25.65 0 23.9531C0 23.1094 0.264085 22.3594 0.880283 21.7031L23.4507 0.75C24.0669 0.09375 24.7712 0 25.3874 0C26.0036 0 26.7078 0.1875 27.236 0.65625L49.7184 21.7031C50.4226 22.3594 50.7747 23.1094 50.6867 23.9531Z" fill="#434974"/>
</svg>
