<svg viewBox="0 0 275 270" fill="none" xmlns="http://www.w3.org/2000/svg">
<path d="M159.456 25.1492C153.468 23.9516 147.203 23.3528 140.882 23.1895V13.2823C184.183 14.4798 221.885 37.2339 243.231 71.3105L234.471 76.2641C231.089 70.9839 227.429 66.0302 223.271 61.5121L213.291 69.9496C198.876 53.8367 179.249 42.3508 156.794 38.1593L159.456 25.1492ZM29.6069 171.145L42.3589 166.954C38.8105 156.992 36.8145 146.159 36.8145 135C36.8145 123.841 38.6441 113.008 42.1925 103.046L29.6069 98.8549C31.6028 92.9758 34.2087 87.2601 37.1472 81.9799L28.3871 77.0262C18.8508 94.1734 13.3619 114.042 13.3619 135C13.3619 155.958 18.9062 175.827 28.3871 193.028L37.1472 188.075C34.2087 182.631 31.7692 177.024 29.6069 171.145ZM118.15 231.895C95.751 227.54 76.124 216.054 61.6532 199.942L51.6734 208.542C47.5151 203.861 43.6895 198.907 40.4738 193.627L31.6028 198.744C52.9486 232.657 90.8165 255.52 134.118 256.772V246.81C127.853 246.647 121.532 245.885 115.544 244.851L118.15 231.895ZM51.7288 61.4577L61.7087 69.8952C76.124 53.7823 95.751 42.2964 118.206 38.1048L115.6 25.1492C121.588 23.9516 127.853 23.3528 134.173 23.1895V13.2823C90.872 14.4798 53.1704 37.2339 31.8246 71.3105L40.5847 76.2641C43.9113 70.9839 47.5706 65.9758 51.7288 61.4577ZM223.271 208.542L213.291 199.942C198.876 216.054 179.249 227.54 156.794 231.895L159.4 244.851C153.412 245.885 147.147 246.647 140.827 246.81V256.772C184.128 255.575 221.996 232.657 243.342 198.744L234.415 193.627C231.255 198.907 227.429 203.861 223.271 208.542ZM275 135C275 209.577 213.458 270 137.5 270C61.5423 270 0 209.577 0 135C0 60.4234 61.5423 0 137.5 0C213.458 0 275 60.4234 275 135ZM268.236 135C268.236 64.1794 209.632 6.64113 137.5 6.64113C65.3679 6.64113 6.76411 64.1794 6.76411 135C6.76411 205.821 65.3679 263.359 137.5 263.359C209.632 263.359 268.236 205.821 268.236 135ZM246.613 76.9718L237.853 81.9254C240.791 87.2057 243.397 92.9214 245.393 98.8004L232.807 102.992C236.356 112.954 238.185 123.786 238.185 134.946C238.185 146.105 236.19 156.938 232.641 166.899L245.393 171.091C243.231 176.97 240.791 182.522 237.853 187.966L246.613 192.919C256.149 175.827 261.638 155.958 261.638 135C261.638 114.042 256.149 94.1734 246.613 76.9718Z" fill="#DEE4F6" fill-opacity="0.1"/>
<path d="M149.976 74.7855C146.71 74.129 143.292 73.8008 139.845 73.7113V68.2806C163.464 68.9371 184.028 81.4097 195.671 100.089L190.893 102.804C189.048 99.9097 187.052 97.1944 184.784 94.7177L179.341 99.3427C171.478 90.5105 160.772 84.2145 148.524 81.9169L149.976 74.7855ZM79.1492 154.813L86.1048 152.515C84.1694 147.055 83.0806 141.117 83.0806 135C83.0806 128.883 84.0786 122.945 86.0141 117.485L79.1492 115.187C80.2379 111.965 81.6593 108.831 83.2621 105.937L78.4839 103.222C73.2823 112.621 70.2883 123.512 70.2883 135C70.2883 146.488 73.3125 157.379 78.4839 166.808L83.2621 164.093C81.6593 161.109 80.3286 158.035 79.1492 154.813ZM127.446 188.113C115.228 185.726 104.522 179.43 96.629 170.598L91.1855 175.312C88.9173 172.746 86.8306 170.031 85.0766 167.136L80.2379 169.941C91.8811 188.531 112.536 201.063 136.155 201.749V196.289C132.738 196.199 129.29 195.781 126.024 195.215L127.446 188.113ZM91.2157 94.6879L96.6593 99.3129C104.522 90.4806 115.228 84.1847 127.476 81.8871L126.054 74.7855C129.321 74.129 132.738 73.8008 136.185 73.7113V68.2806C112.567 68.9371 92.002 81.4097 80.3589 100.089L85.1371 102.804C86.9516 99.9097 88.9476 97.1645 91.2157 94.6879ZM184.784 175.312L179.341 170.598C171.478 179.43 160.772 185.726 148.524 188.113L149.946 195.215C146.679 195.781 143.262 196.199 139.815 196.289V201.749C163.433 201.093 184.089 188.531 195.732 169.941L190.863 167.136C189.139 170.031 187.052 172.746 184.784 175.312ZM213 135C213 175.879 179.431 209 138 209C96.5686 209 63 175.879 63 135C63 94.121 96.5686 61 138 61C179.431 61 213 94.121 213 135ZM209.31 135C209.31 96.1798 177.345 64.6403 138 64.6403C98.6552 64.6403 66.6895 96.1798 66.6895 135C66.6895 173.82 98.6552 205.36 138 205.36C177.345 205.36 209.31 173.82 209.31 135ZM197.516 103.192L192.738 105.907C194.341 108.802 195.762 111.935 196.851 115.157L189.986 117.455C191.921 122.915 192.919 128.853 192.919 134.97C192.919 141.087 191.831 147.025 189.895 152.485L196.851 154.783C195.671 158.006 194.341 161.049 192.738 164.033L197.516 166.748C202.718 157.379 205.712 146.488 205.712 135C205.712 123.512 202.718 112.621 197.516 103.192ZM142.173 156.215C147.103 155.231 151.367 152.754 154.482 149.203L169.966 162.571C173.565 158.513 176.407 153.828 178.161 148.606L158.746 142.012C159.502 139.774 159.925 137.477 159.925 135C159.925 132.523 159.502 130.196 158.746 127.988L178.252 121.394C176.407 116.202 173.565 111.487 169.966 107.429L154.482 120.797C151.397 117.246 147.103 114.68 142.173 113.695L146.196 93.8823C143.595 93.3153 140.843 93.0468 138 93.0468C135.157 93.0468 132.405 93.2855 129.804 93.8823L133.827 113.695C128.897 114.68 124.633 117.246 121.518 120.797L106.034 107.429C102.435 111.487 99.5927 116.172 97.748 121.394L117.254 127.988C116.498 130.226 116.075 132.523 116.075 135C116.075 137.477 116.498 139.804 117.254 142.012L97.8387 148.606C99.5927 153.798 102.435 158.513 106.034 162.571L121.518 149.203C124.603 152.754 128.897 155.231 133.827 156.215L129.804 176.118C132.405 176.625 135.157 176.953 138 176.953C140.843 176.953 143.595 176.625 146.196 176.118L142.173 156.215Z" fill="#DEE4F6"/>
</svg>
