<svg  viewBox="0 0 323 270" fill="none" xmlns="http://www.w3.org/2000/svg">
<path d="M159.456 25.1492C153.468 23.9516 147.203 23.3528 140.882 23.1895V13.2823C184.183 14.4798 221.885 37.2339 243.231 71.3105L234.471 76.2641C231.089 70.9839 227.429 66.0302 223.271 61.5121L213.291 69.9496C198.876 53.8367 179.249 42.3508 156.794 38.1593L159.456 25.1492ZM29.6069 171.145L42.3589 166.954C38.8105 156.992 36.8145 146.159 36.8145 135C36.8145 123.841 38.6441 113.008 42.1925 103.046L29.6069 98.8549C31.6028 92.9758 34.2087 87.2601 37.1472 81.9799L28.3871 77.0262C18.8508 94.1734 13.3619 114.042 13.3619 135C13.3619 155.958 18.9062 175.827 28.3871 193.028L37.1472 188.075C34.2087 182.631 31.7692 177.024 29.6069 171.145ZM118.15 231.895C95.751 227.54 76.124 216.054 61.6532 199.942L51.6734 208.542C47.5151 203.861 43.6895 198.907 40.4738 193.627L31.6028 198.744C52.9486 232.657 90.8165 255.52 134.118 256.772V246.81C127.853 246.647 121.532 245.885 115.544 244.851L118.15 231.895ZM51.7288 61.4577L61.7087 69.8952C76.124 53.7823 95.751 42.2964 118.206 38.1048L115.6 25.1492C121.588 23.9516 127.853 23.3528 134.173 23.1895V13.2823C90.872 14.4798 53.1704 37.2339 31.8246 71.3105L40.5847 76.2641C43.9113 70.9839 47.5706 65.9758 51.7288 61.4577ZM223.271 208.542L213.291 199.942C198.876 216.054 179.249 227.54 156.794 231.895L159.4 244.851C153.412 245.885 147.147 246.647 140.827 246.81V256.772C184.128 255.575 221.996 232.657 243.342 198.744L234.415 193.627C231.255 198.907 227.429 203.861 223.271 208.542ZM275 135C275 209.577 213.458 270 137.5 270C61.5423 270 0 209.577 0 135C0 60.4234 61.5423 0 137.5 0C213.458 0 275 60.4234 275 135ZM268.236 135C268.236 64.1794 209.632 6.64113 137.5 6.64113C65.3679 6.64113 6.76411 64.1794 6.76411 135C6.76411 205.821 65.3679 263.359 137.5 263.359C209.632 263.359 268.236 205.821 268.236 135ZM246.613 76.9718L237.853 81.9254C240.791 87.2057 243.397 92.9214 245.393 98.8004L232.807 102.992C236.356 112.954 238.185 123.786 238.185 134.946C238.185 146.105 236.19 156.938 232.641 166.899L245.393 171.091C243.231 176.97 240.791 182.522 237.853 187.966L246.613 192.919C256.149 175.827 261.638 155.958 261.638 135C261.638 114.042 256.149 94.1734 246.613 76.9718Z" fill="#DEE4F6" fill-opacity="0.1"/>
<g filter="url(#filter0_ddddd_335_33)">
<path d="M222.755 197.245H224.334C224.942 197.245 225.462 197.033 225.893 196.603C226.323 196.172 226.542 195.652 226.542 195.044C226.542 194.436 226.33 193.916 225.906 193.485C225.476 193.055 224.956 192.843 224.334 192.843H222.755V197.245ZM220 190.095H224.334C225.701 190.095 226.87 190.58 227.834 191.544C228.805 192.508 229.29 193.677 229.29 195.044C229.29 196.418 228.805 197.587 227.834 198.551C226.87 199.515 225.701 200 224.334 200H220V190.095ZM229.639 190.095H236.816V192.843H232.394V193.67H236.816V196.425H232.394V197.245H236.816V200H229.639V190.095ZM241.807 196.438H243.68L242.743 193.964L241.807 196.438ZM241.082 190.095H244.404L248.191 200H245.026L244.65 199.022H240.829L240.46 200H237.158L241.082 190.095ZM246.141 190.095H254.904V193.67H257.851V190.095H260.599V200H257.851V196.425H254.904V200H252.149V192.843H251.438V200H248.684V192.843H246.141V190.095ZM265.849 190.095H276.889V192.843H274.346V200H271.591V192.843H266.635C266.655 192.87 267.729 193.984 269.841 196.186C270.128 196.609 270.271 197.054 270.271 197.525C270.271 198.188 270.039 198.77 269.581 199.262C269.116 199.754 268.562 200 267.92 200H263.449V197.245H267.134L263.941 193.916C263.647 193.561 263.504 193.109 263.504 192.569C263.504 191.899 263.729 191.318 264.188 190.833C264.646 190.341 265.199 190.095 265.849 190.095ZM279.555 196.438H281.428L280.491 193.964L279.555 196.438ZM278.83 190.095H282.152L285.939 200H282.774L282.398 199.022H278.577L278.208 200H274.906L278.83 190.095ZM293.541 191.188C294.252 191.906 294.607 192.768 294.607 193.779C294.607 194.518 294.402 195.194 293.999 195.81C293.603 196.404 293.076 196.883 292.427 197.245H297.82V200H290.67L289.036 198.229V200H286.281V190.095H290.957C291.969 190.102 292.83 190.471 293.541 191.188ZM289.036 194.6H290.711C290.896 194.6 291.06 194.531 291.189 194.401C291.319 194.271 291.388 194.107 291.388 193.923C291.388 193.738 291.319 193.574 291.189 193.444C291.06 193.314 290.896 193.246 290.711 193.246H289.036V194.6Z" fill="white"/>
</g>
<path d="M230.823 169.177H237.026C239.417 169.177 241.458 168.345 243.149 166.653C244.841 164.961 245.701 162.92 245.701 160.53C245.701 158.14 244.868 156.099 243.203 154.407C241.511 152.715 239.47 151.882 237.026 151.882H230.823V169.177ZM220 141.086H237.026C242.397 141.086 246.99 142.993 250.776 146.78C254.59 150.566 256.497 155.159 256.497 160.53C256.497 165.928 254.59 170.52 250.776 174.307C246.99 178.093 242.397 180 237.026 180H220V141.086ZM284.668 151.882H268.77C268.85 151.99 273.066 156.367 281.365 165.015C282.493 166.68 283.057 168.425 283.057 170.278C283.057 172.883 282.144 175.166 280.344 177.1C278.518 179.033 276.343 180 273.818 180H253.838V169.177H270.73L258.188 156.099C257.034 154.702 256.47 152.93 256.47 150.808C256.47 148.176 257.356 145.894 259.155 143.987C260.955 142.053 263.13 141.086 265.681 141.086H284.668V151.882Z" fill="white"/>
<path d="M149.976 70.7855C146.71 70.129 143.292 69.8008 139.845 69.7113V64.2806C163.464 64.9371 184.028 77.4097 195.671 96.0887L190.893 98.804C189.048 95.9097 187.052 93.1944 184.784 90.7177L179.341 95.3427C171.478 86.5105 160.772 80.2145 148.524 77.9169L149.976 70.7855ZM79.1492 150.813L86.1048 148.515C84.1694 143.055 83.0806 137.117 83.0806 131C83.0806 124.883 84.0786 118.945 86.0141 113.485L79.1492 111.187C80.2379 107.965 81.6593 104.831 83.2621 101.937L78.4839 99.2218C73.2823 108.621 70.2883 119.512 70.2883 131C70.2883 142.488 73.3125 153.379 78.4839 162.808L83.2621 160.093C81.6593 157.109 80.3286 154.035 79.1492 150.813ZM127.446 184.113C115.228 181.726 104.522 175.43 96.629 166.598L91.1855 171.312C88.9173 168.746 86.8306 166.031 85.0766 163.136L80.2379 165.941C91.8811 184.531 112.536 197.063 136.155 197.749V192.289C132.738 192.199 129.29 191.781 126.024 191.215L127.446 184.113ZM91.2157 90.6879L96.6593 95.3129C104.522 86.4806 115.228 80.1847 127.476 77.8871L126.054 70.7855C129.321 70.129 132.738 69.8008 136.185 69.7113V64.2806C112.567 64.9371 92.002 77.4097 80.3589 96.0887L85.1371 98.804C86.9516 95.9097 88.9476 93.1645 91.2157 90.6879ZM184.784 171.312L179.341 166.598C171.478 175.43 160.772 181.726 148.524 184.113L149.946 191.215C146.679 191.781 143.262 192.199 139.815 192.289V197.749C163.433 197.093 184.089 184.531 195.732 165.941L190.863 163.136C189.139 166.031 187.052 168.746 184.784 171.312ZM213 131C213 171.879 179.431 205 138 205C96.5686 205 63 171.879 63 131C63 90.121 96.5686 57 138 57C179.431 57 213 90.121 213 131ZM209.31 131C209.31 92.1798 177.345 60.6403 138 60.6403C98.6552 60.6403 66.6895 92.1798 66.6895 131C66.6895 169.82 98.6552 201.36 138 201.36C177.345 201.36 209.31 169.82 209.31 131ZM197.516 99.1919L192.738 101.907C194.341 104.802 195.762 107.935 196.851 111.157L189.986 113.455C191.921 118.915 192.919 124.853 192.919 130.97C192.919 137.087 191.831 143.025 189.895 148.485L196.851 150.783C195.671 154.006 194.341 157.049 192.738 160.033L197.516 162.748C202.718 153.379 205.712 142.488 205.712 131C205.712 119.512 202.718 108.621 197.516 99.1919ZM142.173 152.215C147.103 151.231 151.367 148.754 154.482 145.203L169.966 158.571C173.565 154.513 176.407 149.828 178.161 144.606L158.746 138.012C159.502 135.774 159.925 133.477 159.925 131C159.925 128.523 159.502 126.196 158.746 123.988L178.252 117.394C176.407 112.202 173.565 107.487 169.966 103.429L154.482 116.797C151.397 113.246 147.103 110.68 142.173 109.695L146.196 89.8823C143.595 89.3153 140.843 89.0468 138 89.0468C135.157 89.0468 132.405 89.2855 129.804 89.8823L133.827 109.695C128.897 110.68 124.633 113.246 121.518 116.797L106.034 103.429C102.435 107.487 99.5927 112.172 97.748 117.394L117.254 123.988C116.498 126.226 116.075 128.523 116.075 131C116.075 133.477 116.498 135.804 117.254 138.012L97.8387 144.606C99.5927 149.798 102.435 154.513 106.034 158.571L121.518 145.203C124.603 148.754 128.897 151.231 133.827 152.215L129.804 172.118C132.405 172.625 135.157 172.953 138 172.953C140.843 172.953 143.595 172.625 146.196 172.118L142.173 152.215Z" fill="#DEE4F6"/>
<defs>
<filter id="filter0_ddddd_335_33" x="216" y="188.095" width="106.82" height="58.9053" filterUnits="userSpaceOnUse" color-interpolation-filters="sRGB">
<feFlood flood-opacity="0" result="BackgroundImageFix"/>
<feColorMatrix in="SourceAlpha" type="matrix" values="0 0 0 0 0 0 0 0 0 0 0 0 0 0 0 0 0 0 127 0" result="hardAlpha"/>
<feOffset dx="1" dy="1"/>
<feGaussianBlur stdDeviation="1.5"/>
<feColorMatrix type="matrix" values="0 0 0 0 0 0 0 0 0 0 0 0 0 0 0 0 0 0 0.29 0"/>
<feBlend mode="normal" in2="BackgroundImageFix" result="effect1_dropShadow_335_33"/>
<feColorMatrix in="SourceAlpha" type="matrix" values="0 0 0 0 0 0 0 0 0 0 0 0 0 0 0 0 0 0 127 0" result="hardAlpha"/>
<feOffset dx="2" dy="6"/>
<feGaussianBlur stdDeviation="3"/>
<feColorMatrix type="matrix" values="0 0 0 0 0 0 0 0 0 0 0 0 0 0 0 0 0 0 0.26 0"/>
<feBlend mode="normal" in2="effect1_dropShadow_335_33" result="effect2_dropShadow_335_33"/>
<feColorMatrix in="SourceAlpha" type="matrix" values="0 0 0 0 0 0 0 0 0 0 0 0 0 0 0 0 0 0 127 0" result="hardAlpha"/>
<feOffset dx="5" dy="13"/>
<feGaussianBlur stdDeviation="4"/>
<feColorMatrix type="matrix" values="0 0 0 0 0 0 0 0 0 0 0 0 0 0 0 0 0 0 0.15 0"/>
<feBlend mode="normal" in2="effect2_dropShadow_335_33" result="effect3_dropShadow_335_33"/>
<feColorMatrix in="SourceAlpha" type="matrix" values="0 0 0 0 0 0 0 0 0 0 0 0 0 0 0 0 0 0 127 0" result="hardAlpha"/>
<feOffset dx="9" dy="23"/>
<feGaussianBlur stdDeviation="5"/>
<feColorMatrix type="matrix" values="0 0 0 0 0 0 0 0 0 0 0 0 0 0 0 0 0 0 0.04 0"/>
<feBlend mode="normal" in2="effect3_dropShadow_335_33" result="effect4_dropShadow_335_33"/>
<feColorMatrix in="SourceAlpha" type="matrix" values="0 0 0 0 0 0 0 0 0 0 0 0 0 0 0 0 0 0 127 0" result="hardAlpha"/>
<feOffset dx="14" dy="36"/>
<feGaussianBlur stdDeviation="5.5"/>
<feColorMatrix type="matrix" values="0 0 0 0 0 0 0 0 0 0 0 0 0 0 0 0 0 0 0.01 0"/>
<feBlend mode="normal" in2="effect4_dropShadow_335_33" result="effect5_dropShadow_335_33"/>
<feBlend mode="normal" in="SourceGraphic" in2="effect5_dropShadow_335_33" result="shape"/>
</filter>
</defs>
</svg>
