<svg viewBox="0 0 78 78" fill="none" xmlns="http://www.w3.org/2000/svg">
<path fill-rule="evenodd" clip-rule="evenodd" d="M15 0C6.71573 0 0 6.71573 0 15V63C0 71.2843 6.71573 78 15 78H63C71.2843 78 78 71.2843 78 63V15C78 6.71573 71.2843 0 63 0H15ZM57.2383 57.9817C62.208 52.9474 65 46.1195 65 39C65 31.8805 62.208 25.0526 57.2383 20.0183C52.2686 14.9841 45.5282 12.1558 38.5 12.1558C31.4718 12.1558 24.7314 14.9841 19.7617 20.0183C14.792 25.0526 12 31.8805 12 39C12 46.1195 14.792 52.9474 19.7617 57.9817C24.7314 63.0159 31.4718 65.8442 38.5 65.8442C45.5282 65.8442 52.2686 63.0159 57.2383 57.9817ZM32.9383 32.3997H30.2055C30.0984 32.4016 29.9921 32.3813 29.8931 32.3401C29.7941 32.2989 29.7044 32.2376 29.6296 32.1599C29.5549 32.0823 29.4966 31.99 29.4583 31.8887C29.42 31.7874 29.4027 31.6792 29.4072 31.5709C29.7219 25.8799 34.3196 23.9002 38.5166 23.9002C43.1441 23.9002 47.3709 26.3497 47.3709 31.4199C47.3709 35.0405 45.2674 36.7652 43.2501 38.3188C40.8088 40.1946 39.9045 40.8959 39.9045 43.3051V43.6575C39.9045 43.8799 39.8172 44.0933 39.6619 44.2506C39.5066 44.408 39.296 44.4963 39.0764 44.4963H36.3899C36.1726 44.4964 35.9639 44.4098 35.809 44.2554C35.6541 44.101 35.5653 43.891 35.5618 43.6709L35.5519 42.9427C35.426 39.8322 37.1916 37.9162 39.4209 36.2753C41.3786 34.7855 42.6174 33.8057 42.6174 31.6749C42.6174 28.9066 40.5372 27.7557 38.2648 27.7557C35.6082 27.7557 34.1176 29.3596 33.8194 31.5608C33.7598 32.0205 33.3954 32.3997 32.9383 32.3997ZM41.3156 50.9087C41.3156 52.6972 39.9277 54.0193 37.9071 54.0193C35.9692 54.0193 34.5648 52.6972 34.5648 50.9087C34.5648 49.0565 35.9726 47.7546 37.9071 47.7546C39.9244 47.7546 41.3156 49.0565 41.3156 50.9087Z" fill="#434974" fill-opacity="0.5"/>
</svg>
